<svg width="25px" height="25px" viewBox="0 0 16 16" fill="none" xmlns="http://www.w3.org/2000/svg">
<path d="M13.5449 2.90696C12.5074 2.43082 11.4127 2.09099 10.2879 1.89596C10.2777 1.89424 10.2673 1.89572 10.258 1.9002C10.2486 1.90468 10.2409 1.91193 10.2359 1.92096C10.0949 2.17096 9.93892 2.49796 9.82992 2.75396C8.61753 2.56997 7.38432 2.56997 6.17192 2.75396C6.05034 2.46878 5.91279 2.19067 5.75992 1.92096C5.7548 1.91203 5.74708 1.90486 5.7378 1.9004C5.72852 1.89594 5.7181 1.89439 5.70792 1.89596C4.58299 2.0902 3.48812 2.43006 2.45092 2.90696C2.44205 2.91034 2.43463 2.91671 2.42992 2.92496C0.355925 6.02396 -0.213075 9.04696 0.0659248 12.032C0.0669248 12.046 0.0759248 12.06 0.0869248 12.069C1.29466 12.9636 2.64552 13.6466 4.08192 14.089C4.09207 14.0922 4.10296 14.092 4.11303 14.0886C4.12311 14.0852 4.13182 14.0787 4.13792 14.07C4.44592 13.65 4.71992 13.207 4.95592 12.741C4.95918 12.7346 4.96104 12.7276 4.96137 12.7205C4.9617 12.7133 4.9605 12.7062 4.95785 12.6996C4.9552 12.693 4.95115 12.687 4.94599 12.682C4.94083 12.6771 4.93467 12.6733 4.92792 12.671C4.49709 12.5054 4.07982 12.3064 3.67992 12.076C3.67262 12.0717 3.66648 12.0658 3.66205 12.0586C3.65762 12.0514 3.65504 12.0432 3.65454 12.0348C3.65405 12.0264 3.65565 12.018 3.65921 12.0103C3.66277 12.0027 3.66817 11.996 3.67492 11.991C3.75892 11.928 3.84292 11.862 3.92292 11.796C3.92999 11.7903 3.93847 11.7866 3.94745 11.7854C3.95644 11.7842 3.96559 11.7854 3.97392 11.789C6.59292 12.985 9.42793 12.985 12.0149 11.789C12.0235 11.7851 12.0331 11.7837 12.0424 11.785C12.0518 11.7862 12.0606 11.79 12.0679 11.796C12.1479 11.862 12.2319 11.928 12.3159 11.991C12.3227 11.9959 12.3282 12.0025 12.3318 12.0101C12.3355 12.0177 12.3372 12.0261 12.3368 12.0345C12.3364 12.043 12.3339 12.0511 12.3296 12.0584C12.3252 12.0656 12.3192 12.0716 12.3119 12.076C11.9129 12.3085 11.4951 12.5072 11.0629 12.67C11.0562 12.6725 11.0502 12.6765 11.0451 12.6816C11.04 12.6866 11.0361 12.6927 11.0336 12.6994C11.031 12.7061 11.0299 12.7133 11.0303 12.7204C11.0307 12.7276 11.0326 12.7346 11.0359 12.741C11.2759 13.206 11.5509 13.65 11.8529 14.07C11.859 14.0787 11.8677 14.0852 11.8778 14.0886C11.8879 14.092 11.8988 14.0922 11.9089 14.089C13.3477 13.648 14.7008 12.9649 15.9099 12.069C15.9159 12.0647 15.9209 12.0592 15.9246 12.0528C15.9282 12.0464 15.9304 12.0393 15.9309 12.032C16.2649 8.58096 15.3719 5.58296 13.5649 2.92596C13.5631 2.92157 13.5604 2.91761 13.5569 2.91434C13.5535 2.91107 13.5494 2.90855 13.5449 2.90696ZM5.34692 10.214C4.55792 10.214 3.90892 9.48996 3.90892 8.60196C3.90892 7.71296 4.54592 6.98896 5.34692 6.98896C6.15392 6.98896 6.79692 7.71896 6.78492 8.60196C6.78492 9.48996 6.14792 10.214 5.34692 10.214ZM10.6629 10.214C9.87492 10.214 9.22493 9.48996 9.22493 8.60196C9.22493 7.71296 9.86193 6.98896 10.6629 6.98896C11.4699 6.98896 12.1139 7.71896 12.1009 8.60196C12.1009 9.48996 11.4699 10.214 10.6629 10.214Z" fill="white"/>
</svg>
